<?xml version="1.0" encoding="UTF-8"?>
<!DOCTYPE svg PUBLIC "-//W3C//DTD SVG 1.1//EN" "http://www.w3.org/Graphics/SVG/1.1/DTD/svg11.dtd">
<!-- Creator: CorelDRAW -->
<svg xmlns="http://www.w3.org/2000/svg" xml:space="preserve" width="442px" height="250px" version="1.1" style="shape-rendering:geometricPrecision; text-rendering:geometricPrecision; image-rendering:optimizeQuality; fill-rule:evenodd; clip-rule:evenodd"
viewBox="0 0 496.49 280.63"
 xmlns:xlink="http://www.w3.org/1999/xlink"
 xmlns:xodm="http://www.corel.com/coreldraw/odm/2003">
 <defs>
  <style type="text/css">
   <![CDATA[
    .str1 {stroke:#F43F5E;stroke-width:7.02;stroke-miterlimit:22.9256}
    .str0 {stroke:#FB7185;stroke-width:10.52;stroke-linecap:round;stroke-miterlimit:22.9256}
    .fil1 {fill:none;fill-rule:nonzero}
    .fil7 {fill:#601F18;fill-rule:nonzero}
    .fil3 {fill:#803D34;fill-rule:nonzero}
    .fil10 {fill:#A04E44;fill-rule:nonzero}
    .fil4 {fill:#AB695D;fill-rule:nonzero}
    .fil9 {fill:#D28579;fill-rule:nonzero}
    .fil12 {fill:#DE314E;fill-rule:nonzero}
    .fil6 {fill:#E94B60;fill-rule:nonzero}
    .fil8 {fill:#EF7A91;fill-rule:nonzero}
    .fil11 {fill:#F5B8AB;fill-rule:nonzero}
    .fil5 {fill:#F8DDD6;fill-rule:nonzero}
    .fil2 {fill:#FB7185;fill-rule:nonzero}
    .fil0 {fill:#FCE7F3;fill-rule:nonzero}
   ]]>
  </style>
   <clipPath id="id0" style="clip-rule:nonzero">
    <path d="M52.62 3.51l305.19 0c27.12,0 49.11,21.99 49.11,49.11l0 175.39c0,27.12 -21.99,49.12 -49.11,49.12l-305.19 0c-27.12,0 -49.11,-22 -49.11,-49.12l0 -175.39c0,-27.12 21.99,-49.11 49.11,-49.11z"/>
   </clipPath>
 </defs>
 <g id="Camada_x0020_1">
  <metadata id="CorelCorpID_0Corel-Layer"/>
  <path class="fil0" d="M52.62 3.51l305.19 0c27.12,0 49.11,21.99 49.11,49.11l0 175.39c0,27.12 -21.99,49.12 -49.11,49.12l-305.19 0c-27.12,0 -49.11,-22 -49.11,-49.12l0 -175.39c0,-27.12 21.99,-49.11 49.11,-49.11z"/>
  <g style="clip-path:url(#id0)">
   <g id="_2162885921920">
    <g>
     <polyline id="_1" class="fil1 str0" points="-5.26,28.06 205.21,185.92 415.69,28.06 "/>
     <path class="fil2" d="M250.26 154.82c0,32.51 -45.05,52.96 -45.05,52.96 0,0 -45.04,-20.45 -45.04,-52.96 0,-8.4 4.74,-23.89 23.03,-23.89 14.64,0 22.01,11.84 22.01,11.84 0,0 7.38,-11.84 22.02,-11.84 18.29,0 23.03,15.49 23.03,23.89z"/>
    </g>
   </g>
  </g>
  <path class="fil1 str1" d="M52.62 3.51l305.19 0c27.12,0 49.11,21.99 49.11,49.11l0 175.39c0,27.12 -21.99,49.12 -49.11,49.12l-305.19 0c-27.12,0 -49.11,-22 -49.11,-49.12l0 -175.39c0,-27.12 21.99,-49.11 49.11,-49.11z"/>
  <g id="_2162885919712">
   <path class="fil3" d="M471.88 56.4c-5.41,-4.37 -17.53,1.24 -29.54,12.84 -0.61,-16.18 -5.29,-28.17 -12.07,-28.82 -8.62,-0.83 -17.37,16.94 -19.55,39.68 -0.39,4.02 -0.54,7.91 -0.49,11.62 8.37,2.1 16.42,6.01 23.57,11.79 7.15,5.78 12.66,12.83 16.47,20.57 1.3,-0.26 2.62,-0.55 3.94,-0.87 9.5,-9.7 18.11,-20.27 25.8,-31.44 1.09,-1.58 2.15,-3.18 3.2,-4.78 -4.98,-0.49 -11.05,-0.18 -17.69,0.98 8.83,-14.17 11.77,-27.19 6.36,-31.57z"/>
   <path class="fil4" d="M410.24 91.65c-22.49,-5.66 -47.23,1.72 -62.77,20.94 -9.72,12.03 -14.15,26.62 -13.6,40.95 9.8,4.69 20.26,8.07 30.97,9.4l0 -0.01 0 0 0 0c-4.06,-10.51 -2.55,-22.84 5.04,-32.23 11.31,-13.99 31.82,-16.16 45.81,-4.85 6.58,5.31 10.54,12.66 11.72,20.4 1.6,-1.1 3.17,-2.23 4.72,-3.42 6.71,-5.18 13.09,-10.77 19.13,-16.72 -0.31,-0.7 -0.64,-1.4 -0.99,-2.09 -3.81,-7.74 -9.32,-14.8 -16.47,-20.58 -7.15,-5.78 -15.2,-9.68 -23.56,-11.79zm-4.13 7.16c2.95,3.82 2.25,9.31 -1.58,12.27 -3.82,2.95 -9.31,2.25 -12.27,-1.58 -0.68,-0.87 -1.15,-1.84 -1.45,-2.84 -0.14,0.13 -0.29,0.26 -0.45,0.38 -2.46,1.91 -6,1.45 -7.91,-1.01 -1.9,-2.47 -1.45,-6.01 1.02,-7.91 2.46,-1.9 6,-1.45 7.9,1.01 0.13,0.16 0.24,0.32 0.34,0.49 0.54,-0.89 1.25,-1.71 2.13,-2.39 3.82,-2.95 9.31,-2.25 12.27,1.58z"/>
   <path class="fil5" d="M369.93 163.41c0.73,0.04 1.47,0.08 2.2,0.11 0.1,0 0.2,0.01 0.3,0.01 1.16,0.04 2.32,0.04 3.48,0.03 0.26,0 0.51,-0.01 0.76,-0.01 -3.28,-4.16 -3.39,-10.17 0.08,-14.46 2.6,-3.21 6.56,-4.66 10.39,-4.2 -1.25,-3.65 -0.67,-7.83 1.93,-11.04 4.02,-4.98 11.31,-5.75 16.29,-1.73 2.13,1.73 3.49,4.06 4.03,6.55l0 0 0.01 0.03c0.09,0.45 0.16,0.89 0.2,1.34l1.05 15.6c1.31,-0.57 2.6,-1.17 3.87,-1.8 0.15,-0.08 0.31,-0.15 0.45,-0.22 0.7,-0.35 1.4,-0.72 2.09,-1.08 0.2,-0.11 0.39,-0.21 0.58,-0.31 0.68,-0.37 1.36,-0.74 2.03,-1.13 0.2,-0.11 0.39,-0.22 0.59,-0.33 0.68,-0.39 1.35,-0.79 2.02,-1.2 0.17,-0.1 0.34,-0.21 0.51,-0.31 0.7,-0.43 1.39,-0.86 2.08,-1.31 0.11,-0.07 0.23,-0.15 0.35,-0.23 0.73,-0.48 1.47,-0.97 2.19,-1.47l0 0c-1.18,-7.74 -5.14,-15.09 -11.72,-20.4 -13.99,-11.31 -34.5,-9.14 -45.81,4.85 -7.59,9.39 -9.1,21.72 -5.04,32.23 1.56,0.19 3.13,0.35 4.7,0.45 0.13,0.01 0.26,0.02 0.39,0.03z"/>
   <path class="fil6" d="M409.4 138.7l-0.01 -0.03 0 0c-0.54,-2.49 -1.9,-4.82 -4.03,-6.55 -4.98,-4.02 -12.27,-3.25 -16.29,1.73 -2.6,3.21 -3.18,7.39 -1.93,11.04 -3.83,-0.46 -7.79,0.99 -10.39,4.2 -3.47,4.29 -3.36,10.3 -0.08,14.46 0.13,-0.01 0.27,-0.01 0.4,-0.01 0.33,-0.01 0.67,-0.02 1,-0.04 0.2,0 0.41,-0.01 0.61,-0.02 0.61,-0.03 1.23,-0.07 1.84,-0.11 0.26,-0.02 0.51,-0.04 0.76,-0.06 0.14,-0.01 0.27,-0.02 0.41,-0.04 0.92,-0.08 1.85,-0.17 2.78,-0.29 1.07,-0.14 2.14,-0.3 3.2,-0.47 0.31,-0.05 0.62,-0.11 0.93,-0.16 0.76,-0.14 1.52,-0.27 2.27,-0.42 0.34,-0.07 0.68,-0.14 1.02,-0.21 0.74,-0.16 1.48,-0.33 2.22,-0.5 0.3,-0.07 0.61,-0.15 0.91,-0.22 0.82,-0.2 1.62,-0.42 2.43,-0.64 0.21,-0.06 0.42,-0.11 0.63,-0.17l0.06 -0.02c1,-0.28 1.98,-0.58 2.97,-0.89l0.15 -0.06c1.04,-0.33 2.07,-0.68 3.09,-1.05l0.03 -0.01c1.06,-0.38 2.11,-0.78 3.15,-1.2l0 0c1,-0.4 1.99,-0.82 2.97,-1.25l0.15 -0.07 -1.05 -15.6c-0.04,-0.45 -0.11,-0.89 -0.2,-1.34zm-4.52 2.41c-1.81,2.23 -5.09,2.58 -7.32,0.77 -0.51,-0.41 -0.92,-0.91 -1.23,-1.45 -0.07,0.1 -0.13,0.19 -0.21,0.29 -1.16,1.44 -3.28,1.66 -4.72,0.5 -1.44,-1.17 -1.66,-3.28 -0.5,-4.72 1.17,-1.44 3.28,-1.66 4.72,-0.5 0.09,0.07 0.18,0.15 0.26,0.24 0.19,-0.6 0.49,-1.17 0.9,-1.68 1.81,-2.24 5.09,-2.58 7.32,-0.78 2.24,1.81 2.59,5.09 0.78,7.33z"/>
   <path class="fil7" d="M340.29 178.52l0 0c-3.73,0.73 -7.63,1.72 -11.59,2.97 -21.78,6.9 -37.32,19.19 -34.71,27.44 2.06,6.5 14.77,8.56 30.72,5.77 -8.83,14.17 -11.77,27.19 -6.36,31.57 5.41,4.37 17.53,-1.24 29.53,-12.84 0.62,16.18 5.29,28.17 12.08,28.82 8.62,0.83 17.37,-16.94 19.55,-39.68 0.4,-4.14 0.55,-8.15 0.48,-11.96 -8.28,-2.12 -16.25,-6.01 -23.33,-11.73 -7.09,-5.73 -12.56,-12.71 -16.37,-20.36z"/>
   <path class="fil7" d="M454.18 123.19c0,0 0,0 0,0 0.37,-0.09 0.75,-0.18 1.12,-0.28 0.2,-0.05 0.41,-0.1 0.61,-0.15 0.61,-0.16 1.22,-0.32 1.84,-0.5l0.07 -0.01c0.54,-0.16 1.09,-0.31 1.63,-0.48 0.07,-0.02 0.14,-0.03 0.21,-0.06 0.61,-0.18 1.22,-0.36 1.83,-0.56 5.45,-1.72 10.51,-3.78 14.99,-6.03 2.23,-1.13 4.33,-2.3 6.26,-3.5 0.48,-0.31 0.95,-0.61 1.41,-0.91 3.23,-2.13 5.92,-4.33 7.96,-6.51 0.59,-0.62 1.12,-1.24 1.59,-1.85 1.66,-2.16 2.62,-4.26 2.77,-6.21 0.06,-0.84 -0.02,-1.65 -0.27,-2.42 -0.07,-0.25 -0.17,-0.49 -0.28,-0.73 -0.04,-0.08 -0.09,-0.16 -0.13,-0.24 -0.08,-0.15 -0.15,-0.3 -0.24,-0.44 -0.06,-0.1 -0.13,-0.19 -0.2,-0.28 -0.08,-0.12 -0.17,-0.24 -0.26,-0.36 -0.08,-0.1 -0.17,-0.2 -0.25,-0.29 -0.1,-0.11 -0.19,-0.21 -0.29,-0.31 -0.1,-0.1 -0.21,-0.2 -0.31,-0.3 -0.1,-0.09 -0.2,-0.18 -0.31,-0.26 -0.12,-0.1 -0.25,-0.2 -0.37,-0.29 -0.11,-0.08 -0.21,-0.16 -0.32,-0.23 -0.15,-0.1 -0.29,-0.2 -0.44,-0.29 -0.11,-0.06 -0.21,-0.13 -0.32,-0.19 -0.17,-0.1 -0.34,-0.19 -0.52,-0.28 -0.1,-0.05 -0.2,-0.1 -0.3,-0.15 -0.2,-0.1 -0.4,-0.2 -0.61,-0.29 -0.08,-0.03 -0.16,-0.06 -0.24,-0.1 -0.24,-0.1 -0.49,-0.19 -0.74,-0.29l-0.1 -0.03c-0.31,-0.11 -0.63,-0.21 -0.96,-0.31 -0.09,-0.03 -0.19,-0.06 -0.29,-0.09 -0.28,-0.08 -0.57,-0.16 -0.86,-0.23 -0.06,-0.02 -0.12,-0.03 -0.18,-0.05 -0.34,-0.08 -0.69,-0.15 -1.05,-0.23 -0.11,-0.02 -0.23,-0.04 -0.34,-0.06 -0.3,-0.06 -0.6,-0.11 -0.91,-0.16 -0.09,-0.01 -0.17,-0.03 -0.26,-0.04 -0.38,-0.06 -0.77,-0.11 -1.16,-0.16 -0.12,-0.01 -0.23,-0.02 -0.35,-0.04 -0.14,-0.01 -0.29,-0.03 -0.43,-0.04 0,0 0,0 -0.01,0 -1.04,1.61 -2.1,3.2 -3.19,4.79 -7.69,11.17 -16.3,21.74 -25.8,31.44z"/>
   <path class="fil8" d="M396.78 134.56c-0.41,0.51 -0.71,1.08 -0.9,1.68 -0.08,-0.09 -0.17,-0.17 -0.26,-0.24 -1.44,-1.17 -3.55,-0.94 -4.72,0.5 -1.16,1.44 -0.94,3.55 0.5,4.72 1.44,1.16 3.56,0.94 4.72,-0.5 0.08,-0.1 0.14,-0.19 0.21,-0.29 0.31,0.54 0.72,1.04 1.23,1.45 2.23,1.81 5.51,1.46 7.32,-0.77 1.81,-2.24 1.46,-5.52 -0.78,-7.33 -2.23,-1.8 -5.51,-1.46 -7.32,0.78z"/>
   <path class="fil9" d="M393.84 97.23c-0.88,0.68 -1.59,1.5 -2.13,2.39 -0.1,-0.17 -0.21,-0.33 -0.34,-0.49 -1.9,-2.46 -5.44,-2.91 -7.9,-1.01 -2.47,1.9 -2.92,5.44 -1.02,7.91 1.91,2.46 5.45,2.92 7.91,1.01 0.16,-0.12 0.31,-0.25 0.45,-0.38 0.3,1 0.77,1.97 1.45,2.84 2.96,3.83 8.45,4.53 12.27,1.58 3.83,-2.96 4.53,-8.45 1.58,-12.27 -2.96,-3.83 -8.45,-4.53 -12.27,-1.58z"/>
   <path class="fil10" d="M427.38 146.23l0 0 0 0c1.34,8.74 -0.87,17.99 -6.87,25.4 -3.53,4.38 -7.96,7.59 -12.81,9.61 -3.89,1.61 -8.03,2.45 -12.21,2.49 -2.08,0.02 -4.17,-0.16 -6.24,-0.54 -5.16,-0.95 -10.17,-3.17 -14.55,-6.7 -4.59,-3.72 -7.9,-8.43 -9.89,-13.57l0 0c-10.72,-1.34 -21.17,-4.72 -30.97,-9.41l0 0.01c0.02,0.51 0.05,1.03 0.08,1.55l0.02 0.15c0.03,0.47 0.06,0.94 0.1,1.41l0.03 0.21c0.04,0.45 0.08,0.9 0.13,1.35 0.01,0.08 0.02,0.16 0.03,0.25 0.06,0.44 0.11,0.87 0.18,1.31 0.01,0.09 0.02,0.17 0.03,0.26 0.07,0.44 0.14,0.88 0.21,1.32 0.01,0.08 0.02,0.15 0.04,0.23 0.08,0.46 0.16,0.91 0.25,1.37l0.03 0.17c0.1,0.49 0.2,0.99 0.31,1.48l0.01 0.05c0.47,2.08 1.04,4.13 1.72,6.15l0.04 0.11c0.15,0.46 0.31,0.91 0.48,1.36 0.03,0.09 0.07,0.18 0.1,0.27 0.15,0.4 0.29,0.79 0.45,1.18 0.05,0.12 0.09,0.24 0.14,0.36 0.15,0.36 0.3,0.73 0.45,1.09 0.06,0.13 0.11,0.27 0.17,0.4 0.15,0.35 0.3,0.69 0.46,1.03 0.06,0.14 0.13,0.28 0.19,0.42 0.16,0.34 0.32,0.67 0.48,1.01 0.07,0.14 0.14,0.29 0.21,0.43l0.05 0.1c3.81,7.65 9.28,14.63 16.36,20.35 7.09,5.73 15.05,9.62 23.34,11.74 3.76,0.96 7.58,1.56 11.42,1.8 0.98,0.06 1.96,0.09 2.95,0.11 1.47,0.02 2.95,-0.01 4.42,-0.1 0.49,-0.03 0.98,-0.06 1.46,-0.1 1.47,-0.12 2.94,-0.29 4.39,-0.52 1.46,-0.23 2.91,-0.5 4.34,-0.83 0.96,-0.22 1.92,-0.46 2.86,-0.73 0.95,-0.26 1.89,-0.55 2.83,-0.86 0.94,-0.31 1.87,-0.65 2.79,-1 0.92,-0.36 1.83,-0.74 2.74,-1.14 5.38,-2.39 10.47,-5.58 15.07,-9.54 0.92,-0.79 1.82,-1.62 2.7,-2.47 1.76,-1.71 3.44,-3.55 5.02,-5.5l0 0 0 0c0.42,-0.52 0.83,-1.05 1.23,-1.57 0.11,-0.15 0.22,-0.3 0.32,-0.44 0.32,-0.43 0.64,-0.87 0.94,-1.3 0.08,-0.11 0.16,-0.23 0.24,-0.34 0.37,-0.53 0.73,-1.07 1.09,-1.61 0.08,-0.13 0.16,-0.26 0.24,-0.39 0.28,-0.44 0.55,-0.88 0.82,-1.32 0.09,-0.15 0.18,-0.3 0.27,-0.45 0.33,-0.55 0.65,-1.11 0.96,-1.67l0.07 -0.14c0.28,-0.52 0.56,-1.05 0.83,-1.58 0.08,-0.15 0.16,-0.31 0.24,-0.47 0.24,-0.48 0.47,-0.97 0.7,-1.45 0.04,-0.1 0.09,-0.2 0.14,-0.3 0.26,-0.58 0.52,-1.16 0.76,-1.74 0.06,-0.15 0.12,-0.29 0.18,-0.43 0.19,-0.47 0.38,-0.94 0.56,-1.42 0.06,-0.14 0.12,-0.29 0.17,-0.44 0.22,-0.59 0.44,-1.19 0.64,-1.79 0.03,-0.06 0.05,-0.13 0.07,-0.2 0.18,-0.54 0.35,-1.07 0.51,-1.61 0.05,-0.16 0.1,-0.32 0.15,-0.48 0.16,-0.54 0.31,-1.09 0.46,-1.63 0.02,-0.07 0.03,-0.13 0.05,-0.2 0.16,-0.61 0.31,-1.22 0.45,-1.84 0.03,-0.14 0.07,-0.28 0.1,-0.43 0.11,-0.5 0.22,-1.01 0.32,-1.52 0.02,-0.13 0.05,-0.26 0.07,-0.39 0.12,-0.62 0.23,-1.24 0.33,-1.87 0.01,-0.08 0.02,-0.16 0.03,-0.25 0.09,-0.54 0.16,-1.09 0.23,-1.64 0.02,-0.15 0.04,-0.29 0.06,-0.44 0.07,-0.62 0.13,-1.23 0.19,-1.85l0 -0.02c0.05,-0.64 0.1,-1.27 0.13,-1.91 0.01,-0.13 0.02,-0.27 0.02,-0.41 0.03,-0.53 0.05,-1.07 0.06,-1.61 0,-0.11 0.01,-0.21 0.01,-0.32 0.01,-0.63 0.01,-1.27 0,-1.91 0,-0.08 0,-0.17 0,-0.25 -0.01,-0.56 -0.03,-1.11 -0.05,-1.67 -0.01,-0.13 -0.02,-0.26 -0.02,-0.39 -0.07,-1.27 -0.17,-2.54 -0.31,-3.81 -0.02,-0.12 -0.03,-0.24 -0.05,-0.37 -0.07,-0.56 -0.14,-1.13 -0.22,-1.69l-0.03 -0.22c-0.1,-0.63 -0.21,-1.27 -0.32,-1.91 -0.02,-0.08 -0.04,-0.17 -0.05,-0.25 -0.1,-0.55 -0.22,-1.11 -0.34,-1.66 -0.02,-0.11 -0.04,-0.22 -0.07,-0.34 -0.28,-1.25 -0.59,-2.49 -0.95,-3.73 -0.03,-0.11 -0.07,-0.23 -0.1,-0.34 -0.17,-0.58 -0.35,-1.15 -0.54,-1.72l-0.03 -0.12c-0.21,-0.62 -0.42,-1.23 -0.65,-1.85 -0.03,-0.09 -0.06,-0.17 -0.09,-0.26 -0.2,-0.53 -0.41,-1.07 -0.62,-1.59 -0.04,-0.1 -0.08,-0.2 -0.12,-0.29 -0.24,-0.61 -0.5,-1.22 -0.77,-1.82l0 0 0 0c-6.04,5.94 -12.42,11.54 -19.13,16.71 -1.55,1.19 -3.12,2.33 -4.72,3.43z"/>
   <path class="fil11" d="M374.74 176.51c4.37,3.54 9.38,5.75 14.54,6.71 2.07,0.38 4.16,0.56 6.25,0.53 4.17,-0.04 8.32,-0.88 12.2,-2.49 4.85,-2.01 9.28,-5.23 12.82,-9.6 5.99,-7.42 8.2,-16.67 6.86,-25.41l0 0c-0.72,0.5 -1.46,0.99 -2.19,1.47 -0.12,0.08 -0.24,0.16 -0.35,0.23 -0.69,0.45 -1.38,0.88 -2.08,1.31 -0.17,0.1 -0.34,0.21 -0.51,0.31 -0.67,0.41 -1.34,0.81 -2.02,1.2 -0.2,0.11 -0.39,0.22 -0.59,0.33 -0.67,0.39 -1.35,0.76 -2.03,1.13 -0.19,0.1 -0.38,0.2 -0.58,0.31 -0.69,0.36 -1.39,0.73 -2.09,1.08 -0.14,0.07 -0.3,0.14 -0.45,0.22 -1.27,0.63 -2.56,1.23 -3.87,1.8l-0.15 0.07 0.15 -0.06 0.59 8.72 -24.41 3.53 0 0c-1.09,0.1 -2.19,0.05 -3.28,-0.16 -0.36,-0.07 -0.72,-0.16 -1.07,-0.26 -1.07,-0.31 -2.1,-0.78 -3.06,-1.42 -0.33,-0.21 -0.64,-0.44 -0.95,-0.68 -0.68,-0.55 -1.27,-1.17 -1.79,-1.83l0.05 0c-0.27,0.01 -0.54,0.01 -0.82,0.01 -1.16,0.01 -2.32,0.01 -3.48,-0.03 -0.1,0 -0.2,0 -0.3,-0.01 -0.73,-0.03 -1.47,-0.07 -2.2,-0.11 -0.13,-0.01 -0.26,-0.02 -0.39,-0.03 -1.57,-0.1 -3.14,-0.25 -4.7,-0.45l0 0 0 0 0 0.01c1.99,5.15 5.3,9.86 9.9,13.57z"/>
   <path class="fil12" d="M407.53 156.96c-1.04,0.42 -2.09,0.82 -3.15,1.2l-0.03 0.01c-1.02,0.37 -2.05,0.72 -3.09,1.05l-0.16 0.06c-0.98,0.31 -1.96,0.61 -2.96,0.89l-0.04 0.01c-0.01,0 -0.01,0.01 -0.02,0.01 -0.21,0.06 -0.42,0.11 -0.63,0.17 -0.81,0.22 -1.61,0.44 -2.43,0.64 -0.3,0.07 -0.61,0.15 -0.91,0.22 -0.74,0.17 -1.48,0.34 -2.22,0.5 -0.34,0.07 -0.68,0.14 -1.02,0.21 -0.75,0.15 -1.51,0.28 -2.27,0.42 -0.31,0.05 -0.62,0.11 -0.93,0.16 -1.06,0.17 -2.13,0.33 -3.2,0.47 -0.73,0.09 -1.46,0.17 -2.19,0.24 -0.2,0.02 -0.4,0.04 -0.59,0.05 -0.14,0.02 -0.27,0.03 -0.41,0.04 -0.25,0.02 -0.5,0.04 -0.76,0.05 -0.12,0.01 -0.23,0.02 -0.36,0.03 -0.42,0.03 -0.84,0.06 -1.26,0.08 -0.28,0.01 -0.55,0.02 -0.83,0.03 -0.33,0.02 -0.67,0.03 -1,0.04 -0.11,0 -0.23,0.01 -0.34,0.01l-0.05 0c0.52,0.66 1.11,1.28 1.79,1.83 0.31,0.24 0.62,0.47 0.95,0.68 0.96,0.64 1.99,1.11 3.06,1.42 0.35,0.1 0.71,0.19 1.07,0.26 1.09,0.21 2.19,0.26 3.28,0.16l0 0 24.41 -3.53 -0.59 -8.72 -0.15 0.06c-0.98,0.43 -1.97,0.85 -2.97,1.25l0 0z"/>
  </g>
 </g>
</svg>
