<?xml version="1.0" encoding="UTF-8"?>
<!DOCTYPE svg PUBLIC "-//W3C//DTD SVG 1.1//EN" "http://www.w3.org/Graphics/SVG/1.1/DTD/svg11.dtd">
<!-- Creator: CorelDRAW -->
<svg xmlns="http://www.w3.org/2000/svg" xml:space="preserve" width="486px" height="272px" version="1.1" style="shape-rendering:geometricPrecision; text-rendering:geometricPrecision; image-rendering:optimizeQuality; fill-rule:evenodd; clip-rule:evenodd"
viewBox="0 0 620.16 346.57"
 xmlns:xlink="http://www.w3.org/1999/xlink"
 xmlns:xodm="http://www.corel.com/coreldraw/odm/2003">
 <defs>
  <style type="text/css">
   <![CDATA[
    .str1 {stroke:#F43F5E;stroke-width:7.97;stroke-miterlimit:22.9256}
    .str0 {stroke:#FB7185;stroke-width:11.95;stroke-linecap:round;stroke-miterlimit:22.9256}
    .fil1 {fill:none;fill-rule:nonzero}
    .fil2 {fill:#FB7185;fill-rule:nonzero}
    .fil0 {fill:#FCE7F3;fill-rule:nonzero}
    .fil4 {fill:#FEFEFE;fill-opacity:0.850980}
    .fil3 {fill:#17CF2C;fill-opacity:0.850980}
   ]]>
  </style>
   <clipPath id="id0" style="clip-rule:nonzero">
    <path d="M59.75 3.98l366.5 0c30.79,0 55.77,24.98 55.77,55.77l0 227.07c0,30.8 -24.98,55.77 -55.77,55.77l-366.5 0c-30.79,0 -55.76,-24.97 -55.76,-55.77l-0.01 -227.07c0.01,-30.79 24.98,-55.77 55.78,-55.77z"/>
   </clipPath>
 </defs>
 <g id="Camada_x0020_1">
  <metadata id="CorelCorpID_0Corel-Layer"/>
  <path class="fil0" d="M59.75 3.98l366.5 0c30.79,0 55.77,24.98 55.77,55.77l0 227.07c0,30.8 -24.98,55.77 -55.77,55.77l-366.5 0c-30.79,0 -55.76,-24.97 -55.76,-55.77l-0.01 -227.07c0.01,-30.79 24.98,-55.77 55.78,-55.77z"/>
  <g style="clip-path:url(#id0)">
   <g id="_2126553347488">
    <g>
     <polyline id="_1" class="fil1 str0" points="3.98,43.82 243,223.08 482.02,43.82 "/>
     <path class="fil2" d="M294.15 187.77c0,36.91 -51.15,60.14 -51.15,60.14 0,0 -51.15,-23.23 -51.15,-60.14 0,-9.54 5.37,-27.14 26.15,-27.14 16.63,0 25,13.45 25,13.45 0,0 8.37,-13.45 25,-13.45 20.78,0 26.15,17.6 26.15,27.14z"/>
    </g>
   </g>
  </g>
  <path class="fil1 str1" d="M59.75 3.98l366.5 0c30.79,0 55.77,24.98 55.77,55.77l0 227.07c0,30.8 -24.98,55.77 -55.77,55.77l-366.5 0c-30.79,0 -55.76,-24.97 -55.76,-55.77l-0.01 -227.07c0.01,-30.79 24.98,-55.77 55.78,-55.77z"/>
  <g id="_2126553347680">
   <path class="fil3" d="M620.16 173.29c0,70.4 -57.08,127.47 -127.48,127.47 -70.4,0 -127.47,-57.07 -127.47,-127.47 0,-70.41 57.07,-127.48 127.47,-127.48 70.4,0 127.48,57.07 127.48,127.48z"/>
   <g>
    <path class="fil4" d="M585.84 148.3c-0.03,9.23 -9.71,14.89 -17.82,10.3 -5.49,-3.11 -11.12,-5.93 -16.98,-8.28 -11.65,-4.67 -23.72,-7.81 -36.05,-9.99 -8.59,-1.51 -17.24,-2.51 -25.94,-3.04 -9.04,-0.54 -18.09,-0.6 -27.15,-0.13 -10.38,0.53 -20.67,1.67 -30.83,3.87 -3.75,0.81 -7.46,1.83 -11.16,2.82 -2.28,0.61 -4.52,0.68 -6.78,0.02 -4.96,-1.45 -8.38,-5.89 -8.53,-11.09 -0.14,-5.05 2.98,-9.75 7.87,-11.36 3.59,-1.19 7.27,-2.12 10.95,-2.97 9.12,-2.1 18.36,-3.4 27.67,-4.26 9.89,-0.9 19.8,-1.19 29.72,-0.9 24.42,0.69 48.38,4.27 71.56,12.27 9.45,3.26 18.55,7.31 27.19,12.36 3.08,1.8 5.15,4.33 5.94,7.84 0.19,0.83 0.23,1.69 0.34,2.54z"/>
    <path class="fil4" d="M470.45 176.77c-14.56,0.07 -29.47,1.87 -44.04,6.19 -2.38,0.71 -4.76,0.75 -7.08,-0.19 -3.79,-1.53 -6.25,-5.32 -6.12,-9.34 0.14,-4.18 2.69,-7.83 6.73,-9.06 4.11,-1.26 8.28,-2.34 12.47,-3.27 10.32,-2.3 20.78,-3.51 31.35,-3.91 22.74,-0.86 44.96,2.08 66.63,9.02 10.95,3.52 21.44,8.11 31.34,14 0.49,0.3 0.98,0.6 1.47,0.89 5.16,3.16 5.78,9.51 3.32,13.56 -2.82,4.62 -8.68,6.06 -13.54,3.32 -2.75,-1.55 -5.46,-3.16 -8.27,-4.59 -12.87,-6.56 -26.51,-10.81 -40.67,-13.49 -10.9,-2.07 -21.9,-3.08 -33.59,-3.13z"/>
    <path class="fil4" d="M472.73 198.37c16.76,0.18 33.15,2.44 49.07,7.81 8.77,2.96 17.16,6.79 25.12,11.53 0.69,0.41 1.39,0.81 2.02,1.3 3.21,2.44 4.05,6.85 1.98,10.33 -2,3.37 -6.26,4.73 -9.9,3.12 -0.73,-0.32 -1.41,-0.75 -2.1,-1.16 -13.49,-8 -28.05,-12.95 -43.52,-15.32 -9.5,-1.46 -19.05,-1.96 -28.64,-1.59 -12.4,0.49 -24.65,2.21 -36.76,4.9 -1.23,0.27 -2.49,0.51 -3.73,0.53 -3.75,0.04 -6.92,-2.62 -7.58,-6.23 -0.7,-3.82 1.2,-7.4 4.7,-8.81 0.74,-0.3 1.53,-0.49 2.31,-0.66 9.91,-2.23 19.92,-3.91 30.04,-4.77 5.65,-0.48 11.32,-0.66 16.99,-0.98z"/>
   </g>
  </g>
 </g>
</svg>
